<?xml version="1.0" standalone="no"?>
<!DOCTYPE svg PUBLIC "-//W3C//DTD SVG 20010904//EN"
 "http://www.w3.org/TR/2001/REC-SVG-20010904/DTD/svg10.dtd">
<svg version="1.0" xmlns="http://www.w3.org/2000/svg"
 width="700.000000pt" height="700.000000pt" viewBox="0 0 700.000000 700.000000"
 preserveAspectRatio="xMidYMid meet">
<metadata>
Created by potrace 1.11, written by Peter Selinger 2001-2013
</metadata>
<g transform="translate(0.000000,700.000000) scale(0.100000,-0.100000)"
fill="#000000" stroke="none">
<path d="M3404 5926 c-27 -13 -74 -38 -104 -56 -30 -18 -68 -41 -85 -50 -16
-10 -81 -47 -143 -84 -62 -36 -132 -77 -155 -90 -40 -22 -452 -263 -657 -384
-128 -75 -158 -98 -183 -146 l-22 -41 0 -1940 0 -1940 22 -35 c42 -66 115
-103 189 -96 71 7 122 44 160 116 17 33 18 88 19 1033 0 548 3 997 7 997 4 0
31 -14 60 -31 51 -31 81 -48 151 -87 17 -11 276 -161 573 -335 298 -173 560
-322 584 -330 53 -18 103 -12 154 16 117 65 133 225 32 314 -24 21 -61 47 -82
59 -35 19 -979 567 -1254 729 -63 37 -135 79 -160 92 -25 14 -50 31 -55 38 -7
8 -10 230 -10 625 l0 612 185 109 c102 60 221 130 265 155 44 25 94 53 110 63
30 18 108 63 359 209 l140 81 30 -18 c39 -24 435 -254 861 -501 17 -10 71 -41
120 -70 50 -29 133 -77 185 -108 52 -30 152 -88 221 -128 153 -89 197 -103
264 -84 58 16 99 50 125 101 35 68 21 166 -31 218 -25 26 -241 161 -257 161
-3 0 -13 6 -21 14 -9 7 -41 27 -71 43 -70 38 -94 52 -275 158 -176 104 -610
356 -675 393 -25 14 -73 43 -108 64 -34 21 -64 38 -66 38 -2 0 -35 19 -72 42
-164 100 -238 117 -330 74z"/>
</g>
</svg>
